<svg width="20" height="20" viewBox="0 0 20 20" fill="none" xmlns="http://www.w3.org/2000/svg">
<path fill-rule="evenodd" clip-rule="evenodd" d="M0 11C0 6.18185 3.78613 2.248 8.54553 2.01128V8.0545C7.10559 8.2652 6 9.50537 6 11.0038C6 12.65 7.33459 13.9846 8.98083 13.9846C10.403 13.9846 11.5924 12.9887 11.89 11.6563L17.9426 12.0215C17.4354 16.5111 13.6251 20 9 20C4.02942 20 0 15.9706 0 11Z" fill="white"/>
<path fill-rule="evenodd" clip-rule="evenodd" d="M13.9656 0.819901C12.7135 0.279022 11.3639 0 10 0V8.21143C10.8701 8.53381 11.5312 9.24388 11.8049 10.1089L19.9818 10.6022C20.064 9.24075 19.8667 7.87688 19.4022 6.59447C18.9377 5.31206 18.2158 4.13821 17.2809 3.14516C16.3459 2.15208 15.2177 1.36078 13.9656 0.819901Z" fill="white"/>
</svg>
