<svg width="147" height="450" viewBox="0 0 147 450" fill="none" xmlns="http://www.w3.org/2000/svg">
<path fill-rule="evenodd" clip-rule="evenodd" d="M55 229H3V369H20.3333V369.019C20.5016 369.006 20.6716 369 20.8431 369C24.5033 369 27.4705 371.91 27.4705 375.5C27.4705 375.668 27.464 375.835 27.4512 376H27.4706V419H55V369V351V229ZM93 229H144V369H127V369.019C126.835 369.006 126.668 369 126.5 369C122.91 369 120 371.91 120 375.5C120 375.668 120.006 375.835 120.019 376H120V419H93V369V351V229Z" fill="#CCCCCC"/>
<path d="M30 89H60L55 132L30 112V89Z" fill="#C4C4C4"/>
<path d="M118 89H88L93 132L118 112V89Z" fill="#C4C4C4"/>
<path fill-rule="evenodd" clip-rule="evenodd" d="M73.2474 1.18728C62.1324 1.18728 58.5958 6.23955 57.5854 13.3127C56.4222 21.4545 56.5749 58.2779 56.5749 58.2779C56.5749 58.2779 49.5018 58.2779 46.4704 60.2988C46.4704 60.2988 45.9973 76.7938 46.4704 76.9713C50.5122 78.4869 56.5749 78.4869 56.5749 78.4869C55.6912 105.441 53.7253 114.618 52.1646 121.904C51.9408 122.949 51.7254 123.954 51.5227 124.968C51.2299 126.432 50.9496 128.017 50.6563 129.675C48.9252 139.463 46.7433 151.801 38.892 156.797C36.3194 158.434 34.2793 161.368 32.0322 164.6C29.425 168.349 26.5391 172.5 22.2195 175.49C15.6515 180.037 10.6872 182.376 7.56792 183.069C3.02091 184.079 1 185.595 1 189.132C1 191.192 1.02111 239.627 1.50523 246.727C3.02093 268.957 6.55749 281.083 11.1045 294.219C12.9083 299.429 14.0765 303.97 15.2772 308.637C17.8762 318.739 20.6269 329.431 30.3031 348.783C33.5837 355.344 36.25 359.868 38.148 363.088C40.2576 366.667 41.4181 368.636 41.4181 370.003V391.222C41.4181 395.264 38.892 398.801 34.3449 403.348C29.7979 407.895 26.2613 411.936 25.2509 416.989C24.7456 419.515 24.7456 423.556 24.7456 426.588V426.588H36.3658C35.3083 429.761 33.8357 431.55 32.3101 433.403C30.9203 435.092 29.4864 436.834 28.2822 439.724V448.313H42.9338H53.0383H73.2474H93.5978H103.773H118.527V439.734C117.314 436.847 115.87 435.107 114.471 433.42C112.935 431.569 111.452 429.782 110.387 426.613H122.088V426.612C122.088 423.584 122.088 419.547 121.58 417.024C120.562 411.978 117.001 407.94 112.422 403.398C107.843 398.857 105.299 395.324 105.299 391.287V370.091C105.299 368.726 106.468 366.76 108.592 363.184C110.504 359.968 113.188 355.449 116.492 348.896C126.236 329.565 129.006 318.885 131.623 308.795C132.832 304.134 134.008 299.598 135.825 294.393C140.404 281.272 143.965 269.16 145.491 246.955C145.979 239.863 146 191.483 146 189.424C146 185.892 143.965 184.378 139.386 183.369C136.245 182.676 131.246 180.341 124.632 175.799C120.282 172.812 117.376 168.666 114.751 164.92C112.488 161.692 110.434 158.762 107.843 157.126C99.9369 152.136 97.7397 139.812 95.9965 130.035C95.7011 128.379 95.4188 126.795 95.124 125.333C94.9199 124.321 94.7029 123.316 94.4776 122.273C92.906 114.995 90.9264 105.829 90.0365 78.9048C90.0365 78.9048 96.1416 78.9048 100.212 77.3909C100.688 77.2136 100.212 60.7372 100.212 60.7372C97.1591 58.7186 90.0365 58.7186 90.0365 58.7186C90.0365 58.7186 90.1902 21.9369 89.0189 13.8042C88.0014 6.73906 84.4401 1.18728 73.2474 1.18728Z" fill="#CCCCCC"/>
<path d="M57.5854 13.3127L58.5753 13.4541L58.5753 13.4541L57.5854 13.3127ZM56.5749 58.2779V59.2779H57.5791L57.5749 58.2737L56.5749 58.2779ZM46.4704 60.2988L45.9157 59.4667L45.4856 59.7534L45.4708 60.2701L46.4704 60.2988ZM46.4704 76.9713L46.1193 77.9076L46.1193 77.9076L46.4704 76.9713ZM56.5749 78.4869L57.5744 78.5197L57.6082 77.4869H56.5749V78.4869ZM52.1646 121.904L51.1868 121.695L51.1868 121.695L52.1646 121.904ZM51.5227 124.968L50.5421 124.772L50.5421 124.772L51.5227 124.968ZM50.6563 129.675L49.6716 129.501L49.6716 129.501L50.6563 129.675ZM38.892 156.797L38.3551 155.953L38.3551 155.953L38.892 156.797ZM32.0322 164.6L32.8532 165.171L32.8532 165.171L32.0322 164.6ZM22.2195 175.49L22.7887 176.313L22.7887 176.313L22.2195 175.49ZM7.56792 183.069L7.35099 182.093L7.35099 182.093L7.56792 183.069ZM1.50523 246.727L2.50291 246.659L2.50291 246.659L1.50523 246.727ZM11.1045 294.219L10.1595 294.546L10.1595 294.546L11.1045 294.219ZM15.2772 308.637L14.3087 308.886L14.3087 308.886L15.2772 308.637ZM30.3031 348.783L31.1976 348.336L31.1976 348.336L30.3031 348.783ZM38.148 363.088L39.0095 362.58L39.0095 362.58L38.148 363.088ZM34.3449 403.348L33.6378 402.64L33.6378 402.64L34.3449 403.348ZM25.2509 416.989L24.2703 416.793L24.2703 416.793L25.2509 416.989ZM24.7456 426.588H23.7456V427.588H24.7456V426.588ZM36.3658 426.588L37.3145 426.904L37.7533 425.588H36.3658V426.588ZM32.3101 433.403L31.538 432.768L31.538 432.768L32.3101 433.403ZM28.2822 439.724L27.3591 439.339L27.2822 439.524V439.724H28.2822ZM28.2822 448.313H27.2822V449.313H28.2822V448.313ZM118.527 448.313V449.313H119.527V448.313H118.527ZM118.527 439.734H119.527V439.532L119.449 439.346L118.527 439.734ZM114.471 433.42L115.241 432.782L115.241 432.782L114.471 433.42ZM110.387 426.613V425.613H108.996L109.439 426.931L110.387 426.613ZM122.088 426.613V427.613H123.088V426.613H122.088ZM121.58 417.024L122.56 416.826L122.56 416.826L121.58 417.024ZM108.592 363.184L107.732 362.674L107.732 362.674L108.592 363.184ZM116.492 348.896L117.385 349.346L117.385 349.346L116.492 348.896ZM131.623 308.795L132.591 309.046L132.591 309.046L131.623 308.795ZM135.825 294.393L136.769 294.722L136.769 294.722L135.825 294.393ZM145.491 246.955L146.489 247.024L146.489 247.024L145.491 246.955ZM139.386 183.369L139.171 184.345L139.171 184.345L139.386 183.369ZM124.632 175.799L125.198 174.974L125.198 174.974L124.632 175.799ZM114.751 164.92L115.57 164.346L115.57 164.346L114.751 164.92ZM107.843 157.126L107.309 157.972L107.309 157.972L107.843 157.126ZM95.9965 130.035L96.981 129.86L96.981 129.86L95.9965 130.035ZM95.124 125.333L94.1437 125.531L94.1437 125.531L95.124 125.333ZM94.4776 122.273L93.5001 122.484L93.5001 122.484L94.4776 122.273ZM90.0365 78.9048V77.9048H89.0029L89.037 78.9379L90.0365 78.9048ZM100.212 77.3909L99.863 76.4536L99.863 76.4536L100.212 77.3909ZM100.212 60.7372L101.211 60.7083L101.196 60.1894L100.763 59.9031L100.212 60.7372ZM90.0365 58.7186L89.0365 58.7144L89.0323 59.7186L90.0365 59.7186L90.0365 58.7186ZM89.0189 13.8042L90.0087 13.6617L90.0087 13.6617L89.0189 13.8042ZM58.5753 13.4541C59.0641 10.0325 60.1416 7.26857 62.294 5.3428C64.4444 3.41871 67.83 2.18728 73.2474 2.18728V0.187283C67.5498 0.187283 63.6096 1.48199 60.9604 3.85232C58.3131 6.22098 57.1171 9.51976 56.5954 13.1713L58.5753 13.4541ZM56.5749 58.2779C57.5749 58.2737 57.5749 58.2736 57.5749 58.2733C57.5749 58.2731 57.5749 58.2727 57.5749 58.2721C57.5749 58.271 57.5749 58.2694 57.5749 58.2671C57.5749 58.2627 57.5748 58.2561 57.5748 58.2473C57.5747 58.2296 57.5746 58.2032 57.5745 58.1684C57.5742 58.0986 57.5739 57.9949 57.5735 57.8593C57.5726 57.588 57.5716 57.1888 57.5706 56.6779C57.5687 55.6559 57.5673 54.1867 57.5692 52.3981C57.5731 48.8207 57.5903 43.9667 57.6439 38.859C57.7515 28.6014 58.0055 17.4431 58.5753 13.4541L56.5954 13.1713C56.0021 17.3242 55.7509 28.6485 55.644 38.838C55.5904 43.9539 55.5731 48.8145 55.5692 52.3959C55.5673 54.1867 55.5687 55.6579 55.5706 56.6816C55.5716 57.1934 55.5726 57.5933 55.5735 57.8654C55.5739 58.0015 55.5743 58.1055 55.5745 58.1756C55.5746 58.2107 55.5747 58.2372 55.5748 58.255C55.5748 58.264 55.5749 58.2707 55.5749 58.2752C55.5749 58.2774 55.5749 58.2791 55.5749 58.2803C55.5749 58.2808 55.5749 58.2813 55.5749 58.2816C55.5749 58.2819 55.5749 58.282 56.5749 58.2779ZM47.0251 61.1308C48.3212 60.2668 50.6264 59.7766 52.7763 59.5236C53.8197 59.4009 54.7734 59.3393 55.4668 59.3085C55.8129 59.2931 56.0928 59.2854 56.2849 59.2816C56.3809 59.2797 56.4549 59.2788 56.5041 59.2783C56.5287 59.2781 56.5472 59.278 56.5591 59.2779C56.5651 59.2779 56.5694 59.2779 56.572 59.2779C56.5734 59.2779 56.5743 59.2779 56.5747 59.2779C56.575 59.2779 56.5751 59.2779 56.5751 59.2779C56.5752 59.2779 56.5751 59.2779 56.5751 59.2779C56.575 59.2779 56.5749 59.2779 56.5749 58.2779C56.5749 57.2779 56.5747 57.2779 56.5745 57.2779C56.5744 57.2779 56.5742 57.2779 56.574 57.2779C56.5736 57.2779 56.5731 57.2779 56.5725 57.2779C56.5713 57.2779 56.5696 57.2779 56.5675 57.2779C56.5633 57.2779 56.5575 57.2779 56.5499 57.2779C56.5349 57.278 56.5133 57.2782 56.4853 57.2784C56.4295 57.2789 56.3486 57.28 56.2453 57.282C56.0387 57.2861 55.7423 57.2942 55.378 57.3104C54.6503 57.3428 53.6464 57.4075 52.5426 57.5373C50.398 57.7896 47.651 58.3099 45.9157 59.4667L47.0251 61.1308ZM46.8215 76.0349C47.1041 76.1409 47.2439 76.3397 47.2861 76.4041C47.339 76.4852 47.3635 76.5518 47.3707 76.5721C47.3862 76.6155 47.3856 76.6296 47.3779 76.5848C47.3642 76.5052 47.3477 76.3594 47.3322 76.135C47.3018 75.6951 47.2817 75.0583 47.2707 74.2772C47.2488 72.7205 47.2634 70.6535 47.2929 68.5828C47.3224 66.5141 47.3667 64.4501 47.4036 62.9028C47.4221 62.1292 47.4387 61.4851 47.4507 61.0345C47.4566 60.8092 47.4615 60.6323 47.4648 60.5118C47.4665 60.4515 47.4678 60.4054 47.4687 60.3743C47.4691 60.3588 47.4694 60.347 47.4697 60.3392C47.4698 60.3353 47.4699 60.3323 47.4699 60.3303C47.4699 60.3294 47.47 60.3286 47.47 60.3281C47.47 60.3279 47.47 60.3277 47.47 60.3276C47.47 60.3275 47.47 60.3275 46.4704 60.2988C45.4708 60.2701 45.4708 60.2702 45.4708 60.2703C45.4708 60.2705 45.4708 60.2707 45.4708 60.2709C45.4708 60.2714 45.4708 60.2722 45.4707 60.2732C45.4707 60.2753 45.4706 60.2783 45.4705 60.2823C45.4702 60.2903 45.4699 60.3022 45.4695 60.3179C45.4686 60.3493 45.4673 60.3958 45.4656 60.4564C45.4622 60.5776 45.4574 60.7552 45.4514 60.9813C45.4393 61.4335 45.4227 62.0794 45.4042 62.8551C45.3672 64.406 45.3227 66.4769 45.2931 68.5542C45.2635 70.6294 45.2485 72.7194 45.2709 74.3054C45.2821 75.0957 45.3027 75.7767 45.337 76.2729C45.3538 76.5165 45.3757 76.7432 45.407 76.9248C45.4218 77.0105 45.4454 77.1273 45.4868 77.2436C45.507 77.3003 45.5449 77.3958 45.6118 77.4981C45.6678 77.5838 45.8219 77.7961 46.1193 77.9076L46.8215 76.0349ZM56.5749 78.4869C56.5749 77.4869 56.575 77.4869 56.5751 77.4869C56.5751 77.4869 56.5751 77.4869 56.5751 77.4869C56.5751 77.4869 56.575 77.4869 56.5748 77.4869C56.5744 77.4869 56.5736 77.4869 56.5725 77.4869C56.5702 77.4869 56.5665 77.4869 56.5614 77.4869C56.5511 77.4869 56.5353 77.4868 56.514 77.4866C56.4714 77.4863 56.4073 77.4855 56.3235 77.4841C56.156 77.4813 55.9103 77.4755 55.6019 77.464C54.9847 77.4408 54.1197 77.3945 53.1317 77.3018C51.136 77.1147 48.716 76.7454 46.8215 76.0349L46.1193 77.9076C48.2666 78.7128 50.8988 79.1013 52.945 79.2931C53.9779 79.3899 54.8811 79.4383 55.527 79.4625C55.8502 79.4747 56.1096 79.4808 56.2895 79.4838C56.3794 79.4854 56.4495 79.4861 56.4977 79.4865C56.5218 79.4867 56.5404 79.4868 56.5534 79.4869C56.5599 79.4869 56.5649 79.4869 56.5685 79.4869C56.5703 79.4869 56.5718 79.4869 56.5728 79.4869C56.5734 79.4869 56.5738 79.4869 56.5741 79.4869C56.5743 79.4869 56.5745 79.4869 56.5746 79.4869C56.5748 79.4869 56.5749 79.4869 56.5749 78.4869ZM53.1424 122.113C54.7159 114.768 56.6887 105.532 57.5744 78.5197L55.5754 78.4542C54.6936 105.351 52.7347 114.469 51.1868 121.695L53.1424 122.113ZM52.5033 125.164C52.7044 124.158 52.9184 123.159 53.1424 122.113L51.1868 121.695C50.9633 122.738 50.7464 123.75 50.5421 124.772L52.5033 125.164ZM51.641 129.849C51.9347 128.188 52.2131 126.615 52.5033 125.164L50.5421 124.772C50.2467 126.249 49.9644 127.845 49.6716 129.501L51.641 129.849ZM39.4288 157.641C43.6324 154.966 46.2396 150.381 48.012 145.366C49.7876 140.343 50.7782 134.728 51.641 129.849L49.6716 129.501C48.8032 134.411 47.8373 139.859 46.1264 144.7C44.4122 149.55 42.0028 153.632 38.3551 155.953L39.4288 157.641ZM32.8532 165.171C35.1377 161.885 37.0614 159.147 39.4288 157.641L38.3551 155.953C35.5773 157.721 33.4209 160.851 31.2112 164.029L32.8532 165.171ZM22.7887 176.313C27.2791 173.204 30.2592 168.901 32.8532 165.171L31.2112 164.029C28.5908 167.798 25.7991 171.796 21.6503 174.668L22.7887 176.313ZM7.78485 184.045C11.094 183.31 16.1858 180.884 22.7887 176.313L21.6503 174.668C15.1173 179.191 10.2804 181.442 7.35099 182.093L7.78485 184.045ZM2 189.132C2 187.58 2.42934 186.618 3.24045 185.903C4.11614 185.13 5.54846 184.542 7.78485 184.045L7.35099 182.093C5.04036 182.606 3.18873 183.281 1.91721 184.403C0.581108 185.582 0 187.146 0 189.132H2ZM2.50291 246.659C2.02185 239.604 2 191.225 2 189.132H0C0 191.16 0.0203696 239.65 0.507544 246.795L2.50291 246.659ZM12.0495 293.892C7.52387 280.817 4.0112 268.781 2.50291 246.659L0.507544 246.795C2.03066 269.134 5.59112 281.348 10.1595 294.546L12.0495 293.892ZM16.2457 308.388C15.0455 303.723 13.8682 299.146 12.0495 293.892L10.1595 294.546C11.9483 299.713 13.1076 304.218 14.3087 308.886L16.2457 308.388ZM31.1976 348.336C21.5645 329.07 18.8349 318.452 16.2457 308.388L14.3087 308.886C16.9175 319.026 19.6894 329.792 29.4087 349.23L31.1976 348.336ZM39.0095 362.58C37.1145 359.365 34.4623 354.865 31.1976 348.336L29.4087 349.23C32.705 355.823 35.3855 360.371 37.2866 363.596L39.0095 362.58ZM42.4181 370.003C42.4181 369.069 42.0305 368.055 41.469 366.929C40.8959 365.78 40.0569 364.357 39.0095 362.58L37.2866 363.596C38.3487 365.398 39.1448 366.75 39.6793 367.822C40.2255 368.917 40.4181 369.57 40.4181 370.003H42.4181ZM42.4181 391.222V370.003H40.4181V391.222H42.4181ZM35.052 404.055C39.5966 399.51 42.4181 395.712 42.4181 391.222H40.4181C40.4181 394.816 38.1874 398.091 33.6378 402.64L35.052 404.055ZM26.2315 417.185C27.1756 412.464 30.4911 408.616 35.0521 404.055L33.6378 402.64C29.1048 407.174 25.3471 411.409 24.2703 416.793L26.2315 417.185ZM25.7456 426.588C25.7456 423.514 25.7503 419.591 26.2315 417.185L24.2703 416.793C23.741 419.439 23.7456 423.599 23.7456 426.588H25.7456ZM25.7456 426.588V426.588H23.7456V426.588H25.7456ZM36.3658 425.588H24.7456V427.588H36.3658V425.588ZM33.0822 434.039C34.6189 432.172 36.195 430.263 37.3145 426.904L35.4172 426.272C34.4216 429.258 33.0525 430.928 31.538 432.768L33.0822 434.039ZM29.2053 440.108C30.349 437.364 31.7004 435.717 33.0822 434.039L31.538 432.768C30.1401 434.466 28.6239 436.304 27.3591 439.339L29.2053 440.108ZM29.2822 448.313V439.724H27.2822V448.313H29.2822ZM42.9338 447.313H28.2822V449.313H42.9338V447.313ZM53.0383 447.313H42.9338V449.313H53.0383V447.313ZM73.2474 447.313H53.0383V449.313H73.2474V447.313ZM73.2474 449.313H93.5978V447.313H73.2474V449.313ZM93.5978 449.313H103.773V447.313H93.5978V449.313ZM103.773 449.313H118.527V447.313H103.773V449.313ZM119.527 448.313V439.734H117.527V448.313H119.527ZM119.449 439.346C118.175 436.314 116.648 434.478 115.241 432.782L113.701 434.059C115.093 435.736 116.454 437.38 117.605 440.121L119.449 439.346ZM115.241 432.782C113.715 430.943 112.337 429.276 111.335 426.294L109.439 426.931C110.567 430.287 112.154 432.194 113.701 434.059L115.241 432.782ZM110.387 427.613H122.088V425.613H110.387V427.613ZM123.088 426.613V426.612H121.088V426.613H123.088ZM123.088 426.612C123.088 423.627 123.093 419.471 122.56 416.826L120.599 417.222C121.084 419.624 121.088 423.542 121.088 426.612H123.088ZM122.56 416.826C121.475 411.446 117.69 407.216 113.126 402.688L111.718 404.108C116.311 408.665 119.649 412.509 120.599 417.222L122.56 416.826ZM113.126 402.688C108.544 398.143 106.299 394.873 106.299 391.287H104.299C104.299 395.775 107.143 399.57 111.718 404.108L113.126 402.688ZM106.299 391.287V370.091H104.299V391.287H106.299ZM106.299 370.091C106.299 369.661 106.492 369.01 107.043 367.916C107.581 366.846 108.382 365.495 109.452 363.695L107.732 362.674C106.678 364.449 105.833 365.869 105.256 367.017C104.69 368.142 104.299 369.156 104.299 370.091H106.299ZM109.452 363.695C111.366 360.474 114.065 355.931 117.385 349.346L115.599 348.445C112.311 354.967 109.641 359.462 107.732 362.674L109.452 363.695ZM117.385 349.346C127.172 329.929 129.964 319.175 132.591 309.046L130.655 308.544C128.048 318.596 125.299 329.201 115.599 348.445L117.385 349.346ZM132.591 309.046C133.801 304.383 134.968 299.884 136.769 294.722L134.881 294.063C133.049 299.312 131.864 303.884 130.655 308.544L132.591 309.046ZM136.769 294.722C141.369 281.539 144.955 269.338 146.489 247.024L144.494 246.887C142.975 268.982 139.438 281.004 134.881 294.063L136.769 294.722ZM146.489 247.024C146.979 239.886 147 191.45 147 189.424H145C145 191.516 144.978 239.839 144.494 246.887L146.489 247.024ZM147 189.424C147 187.438 146.414 185.875 145.069 184.698C143.79 183.578 141.927 182.905 139.601 182.392L139.171 184.345C141.424 184.842 142.868 185.43 143.752 186.203C144.569 186.918 145 187.878 145 189.424H147ZM139.601 182.392C136.649 181.741 131.777 179.492 125.198 174.974L124.066 176.623C130.715 181.189 135.841 183.611 139.171 184.345L139.601 182.392ZM125.198 174.974C121.019 172.105 118.208 168.11 115.57 164.346L113.932 165.494C116.544 169.221 119.545 173.518 124.066 176.623L125.198 174.974ZM115.57 164.346C113.344 161.172 111.173 158.046 108.377 156.281L107.309 157.972C109.694 159.478 111.632 162.213 113.932 165.494L115.57 164.346ZM108.377 156.281C104.702 153.961 102.276 149.883 100.551 145.04C98.8279 140.205 97.8554 134.764 96.981 129.86L95.012 130.211C95.8808 135.084 96.8784 140.693 98.6667 145.711C100.452 150.722 103.078 155.301 107.309 157.972L108.377 156.281ZM96.981 129.86C96.6861 128.206 96.4018 126.611 96.1043 125.135L94.1437 125.531C94.4359 126.98 94.7162 128.552 95.012 130.211L96.981 129.86ZM96.1043 125.135C95.8986 124.115 95.6801 123.104 95.4551 122.062L93.5001 122.484C93.7257 123.528 93.9412 124.526 94.1437 125.531L96.1043 125.135ZM95.4551 122.062C93.8964 114.844 91.9239 105.738 91.0359 78.8718L89.037 78.9379C89.9289 105.92 91.9155 115.146 93.5001 122.484L95.4551 122.062ZM90.0365 78.9048C90.0365 79.9048 90.0366 79.9048 90.0368 79.9048C90.0369 79.9048 90.037 79.9048 90.0372 79.9048C90.0376 79.9048 90.038 79.9048 90.0385 79.9048C90.0396 79.9048 90.041 79.9048 90.0429 79.9048C90.0465 79.9048 90.0515 79.9048 90.058 79.9048C90.0711 79.9047 90.0898 79.9046 90.1141 79.9044C90.1626 79.904 90.2331 79.9032 90.3236 79.9017C90.5046 79.8987 90.7658 79.8926 91.0911 79.8805C91.7413 79.8563 92.6506 79.808 93.6904 79.7113C95.7504 79.5197 98.3996 79.1318 100.56 78.3281L99.863 76.4536C97.9536 77.1638 95.5152 77.5329 93.5052 77.7199C92.5099 77.8124 91.6385 77.8587 91.0168 77.8819C90.7062 77.8934 90.4586 77.8992 90.2898 77.902C90.2055 77.9034 90.1408 77.9041 90.0979 77.9045C90.0765 77.9047 90.0605 77.9047 90.0501 77.9048C90.045 77.9048 90.0412 77.9048 90.0389 77.9048C90.0378 77.9048 90.037 77.9048 90.0366 77.9048C90.0364 77.9048 90.0363 77.9048 90.0362 77.9048C90.0362 77.9048 90.0363 77.9048 90.0363 77.9048C90.0364 77.9048 90.0365 77.9048 90.0365 78.9048ZM100.56 78.3281C100.857 78.2178 101.011 78.0073 101.068 77.9208C101.136 77.8184 101.174 77.7226 101.195 77.6657C101.237 77.549 101.26 77.4318 101.275 77.346C101.307 77.1642 101.329 76.9373 101.346 76.6939C101.381 76.198 101.401 75.5176 101.412 74.7282C101.435 73.1438 101.42 71.0561 101.39 68.9832C101.36 66.9082 101.316 64.8396 101.278 63.2904C101.26 62.5156 101.243 61.8704 101.231 61.4187C101.225 61.1929 101.22 61.0154 101.216 60.8944C101.215 60.8338 101.213 60.7874 101.213 60.7561C101.212 60.7404 101.212 60.7285 101.212 60.7205C101.211 60.7165 101.211 60.7135 101.211 60.7114C101.211 60.7104 101.211 60.7096 101.211 60.7091C101.211 60.7089 101.211 60.7087 101.211 60.7085C101.211 60.7084 101.211 60.7083 100.212 60.7372C99.212 60.7661 99.212 60.7662 99.212 60.7663C99.212 60.7664 99.212 60.7666 99.212 60.7668C99.2121 60.7673 99.2121 60.768 99.2121 60.769C99.2122 60.771 99.2123 60.7739 99.2124 60.7778C99.2126 60.7857 99.2129 60.7974 99.2134 60.8129C99.2142 60.8439 99.2156 60.89 99.2172 60.9502C99.2206 61.0706 99.2255 61.2473 99.2315 61.4724C99.2436 61.9224 99.2603 62.5658 99.2789 63.3385C99.3161 64.8841 99.3606 66.9457 99.3904 69.012C99.4201 71.0803 99.4348 73.1449 99.4127 74.6997C99.4016 75.4799 99.3814 76.1158 99.3508 76.5549C99.3352 76.7789 99.3186 76.9243 99.3049 77.0033C99.2972 77.0478 99.2966 77.0333 99.3124 76.9893C99.3198 76.9687 99.3446 76.9019 99.3981 76.8206C99.4411 76.7554 99.5814 76.5583 99.863 76.4536L100.56 78.3281ZM100.763 59.9031C99.018 58.749 96.2544 58.2296 94.0952 57.9777C92.9842 57.848 91.9736 57.7834 91.2411 57.7511C90.8743 57.7349 90.576 57.7268 90.3681 57.7227C90.2641 57.7207 90.1827 57.7197 90.1265 57.7191C90.0984 57.7189 90.0766 57.7187 90.0615 57.7187C90.054 57.7186 90.0481 57.7186 90.0439 57.7186C90.0418 57.7186 90.0401 57.7186 90.0389 57.7186C90.0382 57.7186 90.0377 57.7186 90.0373 57.7186C90.0371 57.7186 90.0369 57.7186 90.0368 57.7186C90.0366 57.7186 90.0365 57.7186 90.0365 58.7186C90.0365 59.7186 90.0363 59.7186 90.0363 59.7186C90.0363 59.7186 90.0362 59.7186 90.0362 59.7186C90.0363 59.7186 90.0364 59.7186 90.0366 59.7186C90.0371 59.7186 90.038 59.7186 90.0394 59.7186C90.0421 59.7186 90.0464 59.7186 90.0524 59.7186C90.0645 59.7187 90.0831 59.7188 90.1079 59.719C90.1575 59.7195 90.2321 59.7204 90.3288 59.7223C90.5224 59.7261 90.8043 59.7338 91.153 59.7492C91.8514 59.78 92.8123 59.8415 93.8634 59.9642C96.0287 60.2169 98.3527 60.7068 99.66 61.5713L100.763 59.9031ZM90.0365 58.7186C91.0364 58.7228 91.0364 58.7226 91.0364 58.7223C91.0364 58.722 91.0364 58.7216 91.0365 58.721C91.0365 58.7199 91.0365 58.7182 91.0365 58.7159C91.0365 58.7114 91.0365 58.7047 91.0366 58.6958C91.0366 58.678 91.0367 58.6515 91.0369 58.6165C91.0371 58.5465 91.0375 58.4425 91.0379 58.3066C91.0387 58.0349 91.0398 57.6354 91.0408 57.1241C91.0427 56.1016 91.0441 54.6321 91.0422 52.8433C91.0383 49.2659 91.0209 44.4107 90.9669 39.3006C90.8592 29.1229 90.6062 17.8106 90.0087 13.6617L88.0291 13.9468C88.6029 17.9305 88.8586 29.0754 88.967 39.3217C89.0209 44.4236 89.0383 49.2721 89.0422 52.8455C89.0441 54.632 89.0427 56.0996 89.0408 57.1204C89.0398 57.6308 89.0387 58.0294 89.0379 58.3004C89.0375 58.4359 89.0371 58.5395 89.0369 58.6092C89.0367 58.644 89.0366 58.6704 89.0366 58.688C89.0365 58.6968 89.0365 58.7034 89.0365 58.7078C89.0365 58.7101 89.0365 58.7117 89.0365 58.7128C89.0365 58.7134 89.0365 58.7138 89.0365 58.714C89.0365 58.7143 89.0365 58.7144 90.0365 58.7186ZM90.0087 13.6617C89.4839 10.0177 88.2828 6.60723 85.6337 4.11761C82.9734 1.61757 79.0052 0.187283 73.2474 0.187283V2.18728C78.6823 2.18728 82.091 3.53288 84.264 5.57502C86.4481 7.62759 87.5364 10.5256 88.0291 13.9468L90.0087 13.6617Z" fill="#333333"/>
</svg>
