<svg width="85" height="96" viewBox="0 0 85 96" fill="none" xmlns="http://www.w3.org/2000/svg">
<rect x="24" y="81" width="38" height="14" fill="#C4C4C4" stroke="#333333" stroke-width="2"/>
<mask id="path-2-inside-1" fill="white">
<path fill-rule="evenodd" clip-rule="evenodd" d="M53 0H33V11H0V46L10.0002 56.7612V72L20.0001 82H66.0001L76.0002 72V56.421L85 46V11H53V0Z"/>
</mask>
<path fill-rule="evenodd" clip-rule="evenodd" d="M53 0H33V11H0V46L10.0002 56.7612V72L20.0001 82H66.0001L76.0002 72V56.421L85 46V11H53V0Z" fill="#C4C4C4"/>
<path d="M33 0V-2H31V0H33ZM53 0H55V-2H53V0ZM33 11V13H35V11H33ZM0 11V9H-2V11H0ZM0 46H-2V46.7858L-1.46506 47.3615L0 46ZM10.0002 56.7612H12.0002V55.9753L11.4653 55.3997L10.0002 56.7612ZM10.0002 72H8.00021V72.8284L8.58599 73.4142L10.0002 72ZM20.0001 82L18.5859 83.4142L19.1717 84H20.0001V82ZM66.0001 82V84H66.8286L67.4144 83.4142L66.0001 82ZM76.0002 72L77.4144 73.4142L78.0002 72.8284V72H76.0002ZM76.0002 56.421L74.4866 55.1138L74.0002 55.6769V56.421H76.0002ZM85 46L86.5137 47.3072L87 46.7441V46H85ZM85 11H87V9H85V11ZM53 11H51V13H53V11ZM33 2H53V-2H33V2ZM35 11V0H31V11H35ZM33 9H0V13H33V9ZM-2 11V46H2V11H-2ZM-1.46506 47.3615L8.53515 58.1226L11.4653 55.3997L1.46506 44.6385L-1.46506 47.3615ZM8.00021 56.7612V72H12.0002V56.7612H8.00021ZM8.58599 73.4142L18.5859 83.4142L21.4144 80.5858L11.4144 70.5858L8.58599 73.4142ZM20.0001 84H66.0001V80H20.0001V84ZM67.4144 83.4142L77.4144 73.4142L74.586 70.5858L64.5859 80.5858L67.4144 83.4142ZM78.0002 72V56.421H74.0002V72H78.0002ZM77.5139 57.7282L86.5137 47.3072L83.4863 44.6928L74.4866 55.1138L77.5139 57.7282ZM87 46V11H83V46H87ZM85 9H53V13H85V9ZM51 0V11H55V0H51Z" fill="#333333" mask="url(#path-2-inside-1)"/>
</svg>

