<svg width="29" height="19" viewBox="0 0 29 19" fill="none" xmlns="http://www.w3.org/2000/svg">
<path d="M27.2889 5.90548L27.0207 5.45661H22.2998V7.64073H21.8274V4.47358H19.3807L17.8274 3.09622H15.2587V1.84334H16.0849V0H9.5362V1.84334H10.3624V3.09622H7.6881L6.13475 4.47358H3.07993V5.39528V9.05183H1.84334V6.69922H0V13.2479H1.84334V10.8952H3.07993V14.5518V15.4735H7.6881L10.9291 18.3471H21.8273V15.1207H22.2997V17.3049H27.0206L27.2888 16.856C27.3887 16.6889 28.2648 15.115 28.2648 11.3807C28.2648 7.64642 27.3888 6.07264 27.2889 5.90548ZM12.2058 1.84345H13.4153V3.09633H12.2058V1.84345ZM25.887 15.4615H24.1431V13.2773H19.984V16.5037H11.6287L8.38766 13.6301H4.92333V6.31698H6.83436L8.38771 4.93962H17.1277L18.6811 6.31698H19.984V9.48414H24.1431V7.30001H25.887C26.1008 7.92857 26.4215 9.22975 26.4215 11.3808C26.4215 13.5318 26.1009 14.8329 25.887 15.4615Z" fill="white"/>
</svg>
