<svg width="76" height="65" viewBox="0 0 76 65" fill="none" xmlns="http://www.w3.org/2000/svg">
<path d="M6.36275 15.2652V15.9076L6.98547 15.7499C10.7122 14.8064 15.4581 13.9012 20.7091 12.9L20.734 12.8952C31.4874 10.8448 44.3312 8.39573 54.593 4.4054C63.9958 0.749056 72.6458 0.515883 75.5 0.501013V5.69499C70.2402 5.80498 66.6491 7.08751 64.2377 9.27545C61.7591 11.5244 60.6058 14.659 60.0943 18.2151C59.5926 18.3845 59.1074 18.5588 58.6433 18.7381L58.6433 18.7381C53.722 20.6396 49.3237 23.7424 47.5113 25.0209L47.5037 25.0263C47.4165 25.0879 47.336 25.1446 47.2615 25.197L47.0844 25.3214L47.054 25.5357C46.9581 26.2103 46.933 26.9864 46.9062 27.8157L46.9056 27.8371C46.8466 29.6636 46.774 31.8576 45.9964 34.3304C45.2209 36.7962 43.7362 39.5608 40.8221 42.4881C32.568 50.7798 20.8907 55.7714 15.0097 58.1346C13.1816 58.8691 11.7503 59.3837 10.5764 59.8058L10.7455 60.2763L10.5763 59.8058L10.5218 59.8254C7.98217 60.7384 6.58781 61.2397 5.05219 62.6637L4.89216 62.8121V63.0303V64.5H0.5V12.3074C0.90749 12.2912 1.3447 12.2594 1.78334 12.2274L1.80073 12.2262L1.80078 12.2262C3.00176 12.1386 4.20713 12.054 5.11271 12.2121C5.56214 12.2906 5.87685 12.4199 6.07286 12.5878C6.24714 12.737 6.36275 12.9453 6.36275 13.2955V15.2652Z" fill="#000" stroke="#000"/>
</svg>
