<svg width="39" height="60" viewBox="0 0 39 60" fill="none" xmlns="http://www.w3.org/2000/svg">
<mask id="path-1-inside-1" fill="white">
<path fill-rule="evenodd" clip-rule="evenodd" d="M0 0H39L37.05 7L31.2 12L29.25 50L25.35 55L25.35 60H13.65V55L9.75 50L7.8 12L1.95 7L0 0Z"/>
</mask>
<path fill-rule="evenodd" clip-rule="evenodd" d="M0 0H39L37.05 7L31.2 12L29.25 50L25.35 55L25.35 60H13.65V55L9.75 50L7.8 12L1.95 7L0 0Z" fill="#C4C4C4"/>
<path d="M39 0L40.9266 0.536707L41.6333 -2H39V0ZM0 0V-2H-2.6333L-1.92664 0.536707L0 0ZM37.05 7L38.3494 8.52035L38.813 8.12414L38.9766 7.53671L37.05 7ZM31.2 12L29.9006 10.4797L29.2467 11.0385L29.2026 11.8975L31.2 12ZM29.25 50L30.827 51.2301L31.215 50.7326L31.2474 50.1025L29.25 50ZM25.35 55L23.773 53.7699L23.35 54.3122L23.35 55L25.35 55ZM25.35 60V62H27.35L27.35 60L25.35 60ZM13.65 60H11.65V62H13.65V60ZM13.65 55H15.65V54.3122L15.227 53.7699L13.65 55ZM9.75 50L7.75263 50.1025L7.78496 50.7326L8.173 51.2301L9.75 50ZM7.8 12L9.79737 11.8975L9.75329 11.0385L9.09944 10.4797L7.8 12ZM1.95 7L0.0233591 7.53671L0.187002 8.12414L0.650559 8.52035L1.95 7ZM39 -2H0V2H39V-2ZM38.9766 7.53671L40.9266 0.536707L37.0734 -0.536707L35.1234 6.46329L38.9766 7.53671ZM32.4994 13.5203L38.3494 8.52035L35.7506 5.47965L29.9006 10.4797L32.4994 13.5203ZM31.2474 50.1025L33.1974 12.1025L29.2026 11.8975L27.2526 49.8975L31.2474 50.1025ZM26.927 56.2301L30.827 51.2301L27.673 48.7699L23.773 53.7699L26.927 56.2301ZM23.35 55L23.35 60L27.35 60L27.35 55L23.35 55ZM25.35 58H13.65V62H25.35V58ZM15.65 60V55H11.65V60H15.65ZM8.173 51.2301L12.073 56.2301L15.227 53.7699L11.327 48.7699L8.173 51.2301ZM5.80263 12.1025L7.75263 50.1025L11.7474 49.8975L9.79737 11.8975L5.80263 12.1025ZM0.650559 8.52035L6.50056 13.5203L9.09944 10.4797L3.24944 5.47965L0.650559 8.52035ZM-1.92664 0.536707L0.0233591 7.53671L3.87664 6.46329L1.92664 -0.536707L-1.92664 0.536707Z" fill="#333333" mask="url(#path-1-inside-1)"/>
</svg>
