<svg width="22" height="20" viewBox="0 0 22 20" fill="none" xmlns="http://www.w3.org/2000/svg">
<path d="M7.87552 12.1654C5.65851 12.0168 3.90032 10.2078 3.90032 7.99984C3.90032 5.69469 5.81513 3.81953 8.16896 3.81953C10.0585 3.81953 11.6631 5.02943 12.2233 6.69858C12.2566 6.69719 12.2884 6.68926 12.3221 6.68926C12.5781 6.68926 12.8273 6.73512 13.0592 6.8233C13.2725 6.35247 13.6687 5.98132 14.1567 5.78605C14.0613 5.53851 13.9544 5.29668 13.8289 5.06519L14.8039 4.1104C14.9294 3.98753 15 3.82055 15 3.64646C15 3.47237 14.9294 3.30539 14.8039 3.18251L13.087 1.50188C12.8254 1.24571 12.4011 1.24571 12.1394 1.50188L11.1645 2.45667C10.8118 2.27359 10.4405 2.12026 10.0523 2.00348V0.655983C10.0523 0.293778 9.75234 0 9.38248 0H6.95543C6.58562 0 6.28563 0.293778 6.28563 0.655983V2.00343C5.89744 2.12021 5.52611 2.27359 5.17307 2.45663L4.1988 1.50257C3.93722 1.2464 3.51289 1.2464 3.2513 1.50257L1.53467 3.1832C1.40924 3.30608 1.33857 3.47306 1.33857 3.64715C1.33857 3.82129 1.40924 3.98822 1.53467 4.1111L2.50894 5.06524C2.32198 5.41097 2.16541 5.77424 2.04621 6.15439H0.669804C0.299989 6.15435 0 6.44812 0 6.81038V9.18782C0 9.55008 0.299989 9.84385 0.669804 9.84385H2.04578C2.16499 10.2239 2.3216 10.5876 2.50851 10.9333L1.53396 11.8878C1.27233 12.1439 1.27233 12.5595 1.53396 12.8156L3.2505 14.4967C3.51204 14.7529 3.93642 14.7529 4.198 14.4967L5.17223 13.5426C5.52527 13.726 5.89697 13.8797 6.28553 13.9965V15.344C6.28553 15.7062 6.58552 16 6.95534 16H8.5244C8.09673 15.6339 7.82458 15.0975 7.82458 14.4989C7.82472 14.1166 7.79391 12.5344 7.87552 12.1654Z" fill="white"/>
<path d="M10.7394 7.29605C10.8201 7.21733 10.909 7.15054 11 7.08731C10.5996 5.88085 9.45001 5 8.08132 5C6.38222 5 5 6.34841 5 8.00594C5 9.74459 6.54426 11.222 8.48283 10.9723C8.61976 10.8636 8.76994 10.7702 8.93346 10.6996C8.35278 9.23361 9.57402 8.43315 10.7394 7.29605Z" fill="white"/>
<path d="M15.4998 11C14.1215 11 13 12.1215 13 13.5C13 14.8785 14.1215 16 15.4998 16C16.8785 16 18 14.8785 18 13.5C18 12.1215 16.8785 11 15.4998 11Z" fill="white"/>
<path d="M21.9997 12.5332C21.9997 12.2388 21.7611 12.0002 21.4667 12.0002H20.3719C20.2769 11.6914 20.1521 11.3956 20.0031 11.1151L20.7787 10.3395C20.8789 10.2393 20.9349 10.1037 20.9349 9.96234C20.9349 9.82096 20.8789 9.68541 20.7787 9.5852L19.4131 8.21956C19.3089 8.11581 19.1727 8.06375 19.036 8.06375C18.8997 8.06375 18.7633 8.11581 18.6592 8.21956L17.883 8.99582C17.6023 8.8469 17.307 8.72252 16.9981 8.62781V7.53299C16.9981 7.23865 16.7595 7 16.4652 7H14.5341C14.2398 7 14.0012 7.23865 14.0012 7.53299V8.62781C13.6924 8.72252 13.3967 8.8469 13.1157 8.99582L12.3405 8.22068C12.2364 8.11647 12.1 8.06445 11.9633 8.06445C11.827 8.06445 11.6907 8.11651 11.5866 8.22031L10.221 9.58595C10.1208 9.68616 10.0648 9.82171 10.0648 9.96308C10.0648 10.1045 10.1208 10.24 10.221 10.3402L10.9962 11.1155C10.8472 11.396 10.7228 11.6914 10.6277 12.0002H9.53294C9.2386 12.0002 9 12.2388 9 12.5332V14.465C9 14.7594 9.2386 14.998 9.53294 14.998H10.6274C10.7224 15.3068 10.8468 15.6025 10.9958 15.8831L10.2202 16.6587C10.0123 16.8666 10.0123 17.2043 10.2202 17.4126L11.5858 18.7782C11.686 18.8785 11.8216 18.9344 11.963 18.9344C12.1043 18.9344 12.2399 18.8785 12.3401 18.7782L13.1149 18.0034C13.3962 18.1524 13.692 18.2771 14.0012 18.3719V19.4671C14.0012 19.7613 14.2398 20 14.5341 20H16.4652C16.7595 20 16.9981 19.7613 16.9981 19.4671V18.3719C17.3073 18.2771 17.6031 18.1524 17.884 18.0034L18.6599 18.779C18.7641 18.8831 18.9004 18.9348 19.0367 18.9348C19.1733 18.9348 19.3097 18.8831 19.4137 18.779L20.779 17.4137C20.8791 17.3136 20.9352 17.178 20.9352 17.0365C20.9352 16.8952 20.8791 16.7596 20.779 16.6595L20.0034 15.8839C20.1524 15.603 20.2772 15.3072 20.3719 14.998H21.4667C21.6081 14.998 21.744 14.942 21.8438 14.8418C21.9439 14.742 22 14.6061 22 14.4647L21.9997 12.5332ZM15.4995 16.8193C13.6693 16.8193 12.18 15.33 12.18 13.4997C12.18 11.6694 13.6692 10.1801 15.4995 10.1801C17.3301 10.1801 18.8194 11.6694 18.8194 13.4997C18.8194 15.3299 17.3301 16.8193 15.4995 16.8193Z" fill="white"/>
</svg>
